<svg width="20" height="20" viewBox="0 0 20 20" fill="none" xmlns="http://www.w3.org/2000/svg">
<path d="M10 12.5C11.3807 12.5 12.5 11.3807 12.5 10C12.5 8.61929 11.3807 7.5 10 7.5C8.61929 7.5 7.5 8.61929 7.5 10C7.5 11.3807 8.61929 12.5 10 12.5Z" fill="#737373"/>
<path d="M13.4375 2.1875H6.5625C5.40258 2.18881 4.29055 2.65017 3.47036 3.47036C2.65017 4.29055 2.18881 5.40258 2.1875 6.5625V13.4375C2.18881 14.5974 2.65017 15.7095 3.47036 16.5296C4.29055 17.3498 5.40258 17.8112 6.5625 17.8125H13.4375C14.5974 17.8112 15.7095 17.3498 16.5296 16.5296C17.3498 15.7095 17.8112 14.5974 17.8125 13.4375V6.5625C17.8112 5.40258 17.3498 4.29055 16.5296 3.47036C15.7095 2.65017 14.5974 2.18881 13.4375 2.1875ZM10 13.75C9.25832 13.75 8.5333 13.5301 7.91661 13.118C7.29993 12.706 6.81928 12.1203 6.53545 11.4351C6.25162 10.7498 6.17736 9.99584 6.32206 9.26841C6.46675 8.54098 6.8239 7.8728 7.34835 7.34835C7.8728 6.8239 8.54098 6.46675 9.26841 6.32206C9.99584 6.17736 10.7498 6.25162 11.4351 6.53545C12.1203 6.81928 12.706 7.29993 13.118 7.91661C13.5301 8.5333 13.75 9.25832 13.75 10C13.7489 10.9942 13.3534 11.9474 12.6504 12.6504C11.9474 13.3534 10.9942 13.7489 10 13.75ZM14.0625 6.875C13.8771 6.875 13.6958 6.82002 13.5417 6.717C13.3875 6.61399 13.2673 6.46757 13.1964 6.29627C13.1254 6.12496 13.1068 5.93646 13.143 5.7546C13.1792 5.57275 13.2685 5.4057 13.3996 5.27459C13.5307 5.14348 13.6977 5.05419 13.8796 5.01801C14.0615 4.98184 14.25 5.00041 14.4213 5.07136C14.5926 5.14232 14.739 5.26248 14.842 5.41665C14.945 5.57082 15 5.75208 15 5.9375C15 6.18614 14.9012 6.4246 14.7254 6.60041C14.5496 6.77623 14.3111 6.875 14.0625 6.875Z" fill="#737373"/>
</svg>
