<svg width="20" height="20" viewBox="0 0 20 20" fill="none" xmlns="http://www.w3.org/2000/svg">
<path d="M18.0214 5.21426C17.8678 4.24723 16.9837 3.4022 16.0053 3.29012C12.0125 2.855 7.9842 2.85512 3.9914 3.29047C3.01651 3.40216 2.13242 4.24712 1.97808 5.21777C1.49275 8.38852 1.49294 11.6147 1.97865 14.7854C2.13238 15.7524 3.01651 16.5974 3.99468 16.7094C5.98906 16.9269 7.99379 17.0359 10 17.0357C12.0062 17.0359 14.0109 16.9269 16.0053 16.7094L16.0085 16.709C16.9836 16.5975 17.8677 15.7525 18.0219 14.7817C18.5073 11.611 18.5071 8.38491 18.0214 5.21426ZM12.8467 10.5198L9.09668 13.0198C9.00256 13.0825 8.89317 13.1185 8.78018 13.124C8.66719 13.1295 8.55483 13.1042 8.4551 13.0508C8.35536 12.9974 8.27198 12.918 8.21385 12.8209C8.15571 12.7239 8.12501 12.6129 8.125 12.4998V7.49976C8.12501 7.38663 8.15571 7.27563 8.21385 7.17859C8.27198 7.08155 8.35536 7.0021 8.4551 6.94873C8.55483 6.89535 8.66719 6.87004 8.78018 6.8755C8.89317 6.88096 9.00256 6.91699 9.09668 6.97974L12.8467 9.47974C12.9323 9.53681 13.0025 9.61413 13.051 9.70485C13.0996 9.79557 13.125 9.89686 13.125 9.99976C13.125 10.1026 13.0996 10.2039 13.051 10.2947C13.0025 10.3854 12.9323 10.4627 12.8467 10.5198Z" fill="#737373"/>
</svg>
